Coordinates
version=1
nRows=21
nColumns=22
inDegrees=yes

Units are S.I. units (second, meters, Newtons, ...)
If the header above contains a line with 'inDegrees', this indicates whether rotational values are in degrees (yes) or radians (no).

endheader
time	pelvis_tilt	pelvis_list	pelvis_rotation	pelvis_tx	pelvis_ty	pelvis_tz	hip_flexion_r	hip_adduction_r	hip_rotation_r	knee_angle_r	ankle_angle_r	subtalar_angle_r	hip_flexion_l	hip_adduction_l	hip_rotation_l	knee_angle_l	ankle_angle_l	subtalar_angle_l	lumbar_extension	lumbar_bending	lumbar_rotation
      3.88000000	      0.11450689	    -10.17936226	     60.43195414	      0.73909941	      0.97533023	     -0.28560236	     26.63022693	      8.81252588	     -2.02969650	    -24.43595233	     12.04922832	     -4.80228468	     27.66981984	     -6.59154445	     -2.27214256	    -58.99771830	     18.10446596	      8.62716326	      1.36812078	      8.23579071	      6.75885111
      3.89000000	      0.18801776	    -10.22189961	     60.34856280	      0.74178823	      0.97566854	     -0.28824267	     26.27250527	      9.02928357	     -1.89560606	    -24.20738615	     12.10407978	     -5.07986431	     27.89827329	     -6.86324866	     -2.45895712	    -57.99227992	     18.51277627	      7.78472074	      1.33965824	      8.31630118	      6.92808305
      3.90000000	      0.25936381	    -10.26164611	     60.29112474	      0.74438066	      0.97595610	     -0.29087573	     25.93099209	      9.23284934	     -1.75966203	    -24.00394313	     12.13306793	     -5.40162840	     28.09130912	     -7.10701303	     -2.61212293	    -56.92802687	     18.90027076	      6.92829334	      1.32137320	      8.39053547	      7.05000048
      3.91000000	      0.33327764	    -10.29734680	     60.26353197	      0.74686413	      0.97620315	     -0.29352017	     25.60380502	      9.42237338	     -1.63951813	    -23.82937286	     12.15513249	     -5.76621679	     28.24766665	     -7.31765757	     -2.71620357	    -55.81305942	     19.27905581	      6.04575449	      1.31078630	      8.46312732	      7.15119685
      3.92000000	      0.39985074	    -10.31514186	     60.27621564	      0.74922030	      0.97642860	     -0.29619324	     25.28879388	      9.57397334	     -1.55670480	    -23.69425400	     12.18698410	     -6.17625899	     28.36158540	     -7.47901931	     -2.78074224	    -54.65231041	     19.64988655	      5.10852609	      1.30163157	      8.51951926	      7.16716916
      3.93000000	      0.46441469	    -10.32432615	     60.31562422	      0.75147124	      0.97663610	     -0.29888527	     24.98801997	      9.70307267	     -1.49838172	    -23.59145634	     12.23950468	     -6.58469632	     28.44050443	     -7.60309832	     -2.80291692	    -53.45953731	     20.00413449	      4.16931405	      1.29876258	      8.56847378	      7.14526961
      3.94000000	      0.52451782	    -10.32298848	     60.37804778	      0.75360169	      0.97683788	     -0.30159786	     24.70067103	      9.80620130	     -1.46070192	    -23.51942703	     12.33226321	     -6.95272520	     28.48451698	     -7.68233756	     -2.77483527	    -52.24233465	     20.34666067	      3.25961578	      1.29944834	      8.60968298	      7.10612695
      3.95000000	      0.57313274	    -10.30885073	     60.45744412	      0.75561503	      0.97704106	     -0.30432960	     24.42795460	      9.87708125	     -1.43982882	    -23.47842382	     12.46500161	     -7.25859748	     28.49467606	     -7.71395826	     -2.71084109	    -51.00655614	     20.67562303	      2.40119236	      1.30517176	      8.63551066	      7.04144350
      3.96000000	      0.60592268	    -10.28315119	     60.54517533	      0.75751887	      0.97724872	     -0.30707124	     24.17023903	      9.91617594	     -1.42670130	    -23.46342650	     12.63228804	     -7.49346519	     28.47335653	     -7.69607213	     -2.61460204	    -49.75734653	     20.99241430	      1.62808003	      1.31684794	      8.64178192	      6.96507921
      3.97000000	      0.62053321	    -10.24868475	     60.63585779	      0.75931962	      0.97745957	     -0.30982390	     23.92660526	      9.92504924	     -1.41459169	    -23.46757392	     12.82163292	     -7.66478576	     28.42352862	     -7.63106224	     -2.49575651	    -48.49916634	     21.30055806	      0.96335572	      1.33765494	      8.62910527	      6.88189441
      3.98000000	      0.61538889	    -10.20337511	     60.72660513	      0.76102266	      0.97767964	     -0.31257725	     23.69387389	      9.90303487	     -1.40578856	    -23.48827274	     13.03034090	     -7.78286158	     28.34474875	     -7.51802904	     -2.35629267	    -47.23594289	     21.60548273	      0.43679027	      1.36721220	      8.59301787	      6.79781168
      3.99000000	      0.59313488	    -10.15026837	     60.81255280	      0.76263734	      0.97790457	     -0.31533394	     23.46879173	      9.85567537	     -1.39460823	    -23.51880803	     13.24659785	     -7.86020560	     28.23795551	     -7.36395295	     -2.20020834	    -45.97398768	     21.90605488	      0.05233267	      1.40447190	      8.53866113	      6.71851062
      4.00000000	      0.54453550	    -10.10568775	     60.89733586	      0.76416632	      0.97808646	     -0.31808139	     23.28255223	      9.77866935	     -1.41735918	    -23.57911925	     13.48478045	     -7.90444475	     28.13074500	     -7.16977378	     -2.02710032	    -44.72862963	     22.21634113	     -0.10687461	      1.47312511	      8.46134506	      6.64163441
      4.01000000	      0.49361105	    -10.03508819	     60.96901981	      0.76564386	      0.97833036	     -0.32083328	     23.06088316	      9.69128833	     -1.39610090	    -23.62008461	     13.70560005	     -7.93403344	     27.96457108	     -6.94751777	     -1.84577679	    -43.48596015	     22.48063926	     -0.24753685	      1.52269365	      8.36762530	      6.57240844
      4.02000000	      0.45716831	     -9.94488875	     61.02686683	      0.76707964	      0.97862951	     -0.32359158	     22.79970928	      9.61309314	     -1.33336516	    -23.63858149	     13.90886837	     -7.94557389	     27.74371233	     -6.72416482	     -1.66789392	    -42.26347610	     22.70110785	     -0.35430012	      1.54891274	      8.28061459	      6.51589781
      4.03000000	      0.40102435	     -9.88648216	     61.08469892	      0.76846212	      0.97883660	     -0.32632696	     22.59655933	      9.52161260	     -1.32647155	    -23.68497631	     14.12105215	     -7.95826319	     27.55237007	     -6.49864252	     -1.50276217	    -41.08848195	     22.92006514	     -0.34473992	      1.62976078	      8.18732006	      6.45112449
      4.04000000	      0.36010162	     -9.81367823	     61.12812334	      0.76982674	      0.97908199	     -0.32905161	     22.36000443	      9.44332268	     -1.28970243	    -23.70953704	     14.32100047	     -7.96399866	     27.31754670	     -6.28866847	     -1.36454324	    -39.94965686	     23.07342042	     -0.30715900	      1.69182908	      8.09952803	      6.39611554
      4.05000000	      0.34657245	     -9.73260449	     61.15920304	      0.77119742	      0.97935017	     -0.33174065	     22.09021820	      9.39304700	     -1.23235507	    -23.70859437	     14.50551917	     -7.96487939	     27.04673660	     -6.11728871	     -1.26293133	    -38.86250870	     23.16623382	     -0.24163724	      1.73106462	      8.02866889	      6.35185006
      4.06000000	      0.32479293	     -9.68181918	     61.19221571	      0.77250513	      0.97953503	     -0.33442402	     21.86330516	      9.33923986	     -1.22035537	    -23.72162589	     14.68872965	     -7.97761474	     26.80580700	     -5.96379454	     -1.20338492	    -37.84209033	     23.20492781	     -0.16459699	      1.82049408	      7.96889160	      6.29999746
      4.07000000	      0.32433462	     -9.62906159	     61.21466131	      0.77381047	      0.97971410	     -0.33704773	     21.61940827	      9.30961203	     -1.19836001	    -23.71809475	     14.85610760	     -7.99468707	     26.54585055	     -5.84875111	     -1.18663462	    -36.89032541	     23.16112579	     -0.09057395	      1.89360333	      7.92276834	      6.25595111
      4.08000000	      0.33112396	     -9.60211905	     61.23354119	      0.77509399	      0.97982400	     -0.33960771	     21.40240001	      9.29798697	     -1.19728956	    -23.71716665	     15.00777622	     -8.02189340	     26.30951654	     -5.76884432	     -1.20229813	    -36.02342581	     23.02961076	     -0.05568652	      1.98910108	      7.89101796	      6.20598598
